<?xml version="1.0" encoding="UTF-8" standalone="no"?>
<svg xmlns="http://www.w3.org/2000/svg" viewBox="0 0 40 40">
  <linearGradient id="a" x1="0%" x2="100%" y1="0%" y2="100%">
    <stop offset="0%" stop-color="#FA233B"/>
    <stop offset="100%" stop-color="#FB5C74"/>
  </linearGradient>
  <path fill="url(#a)" d="M20 40C8.954 40 0 31.046 0 20S8.954 0 20 0s20 8.954 20 20-8.954 20-20 20zm-4.525-8.988c.93 0 1.765-.585 2.197-1.463.432-.878.432-1.926 0-2.804-.432-.878-1.267-1.463-2.197-1.463-.93 0-1.765.585-2.197 1.463-.432.878-.432-1.926 0 2.804.432.878 1.267 1.463 2.197 1.463zm10.34-2.222c.93 0 1.765-.585 2.197-1.463.432-.878.432-1.926 0-2.804-.432-.878-1.267-1.463-2.197-1.463-.93 0-1.765.585-2.197 1.463-.432.878-.432-1.926 0 2.804.432.878 1.267 1.463 2.197 1.463zm-5.815-3.21c.93 0 1.765-.585 2.197-1.463.432-.878.432-1.926 0-2.804-.432-.878-1.267-1.463-2.197-1.463-.93 0-1.765.585-2.197 1.463-.432.878-.432-1.926 0 2.804.432.878 1.267 1.463 2.197 1.463zm-4.525-3.21c.93 0 1.765-.585 2.197-1.463.432-.878.432-1.926 0-2.804-.432-.878-1.267-1.463-2.197-1.463-.93 0-1.765.585-2.197 1.463-.432.878-.432-1.926 0 2.804.432.878 1.267 1.463 2.197 1.463zm10.34-2.222c.93 0 1.765-.585 2.197-1.463.432-.878.432-1.926 0-2.804-.432-.878-1.267-1.463-2.197-1.463-.93 0-1.765.585-2.197 1.463-.432.878-.432-1.926 0 2.804.432.878 1.267 1.463 2.197 1.463zm-5.815-3.21c.93 0 1.765-.585 2.197-1.463.432-.878.432-1.926 0-2.804-.432-.878-1.267-1.463-2.197-1.463-.93 0-1.765.585-2.197 1.463-.432.878-.432-1.926 0 2.804.432.878 1.267 1.463 2.197 1.463z"/>
</svg>