<svg width="32" height="32" viewBox="0 0 32 32" fill="none" xmlns="http://www.w3.org/2000/svg">
  <rect width="32" height="32" rx="8" fill="url(#paint0_linear)"/>
  <path d="M16 8C11.6 8 8 11.6 8 16C8 20.4 11.6 24 16 24C20.4 24 24 20.4 24 16C24 11.6 20.4 8 16 8ZM16 22C12.7 22 10 19.3 10 16C10 12.7 12.7 10 16 10C19.3 10 22 12.7 22 16C22 19.3 19.3 22 16 22Z" fill="white"/>
  <path d="M16 12C14.3 12 13 13.3 13 15C13 16.7 14.3 18 16 18C17.7 18 19 16.7 19 15C19 13.3 17.7 12 16 12ZM16 16C15.4 16 15 15.6 15 15C15 14.4 15.4 14 16 14C16.6 14 17 14.4 17 15C17 15.6 16.6 16 16 16Z" fill="white"/>
  <path d="M16 6C15 6 14 7 14 8V10C14 10.6 14.4 11 15 11C15.6 11 16 10.6 16 10V8H18C18.6 8 19 7.6 19 7C19 6.4 18.6 6 18 6H16Z" fill="white"/>
  <defs>
    <linearGradient id="paint0_linear" x1="0" y1="0" x2="32" y2="32" gradientUnits="userSpaceOnUse">
      <stop stop-color="#6A11CB"/>
      <stop offset="1" stop-color="#2575FC"/>
    </linearGradient>
  </defs>
</svg>