<svg width="1024" height="1024" viewBox="0 0 1024 1024" fill="none" xmlns="http://www.w3.org/2000/svg">
  <rect width="1024" height="1024" rx="256" fill="url(#paint0_linear)"/>
  <path d="M512 256C371.04 256 256 371.04 256 512C256 652.96 371.04 768 512 768C652.96 768 768 652.96 768 512C768 371.04 652.96 256 512 256ZM512 704C406.144 704 320 617.856 320 512C320 406.144 406.144 320 512 320C617.856 320 704 406.144 704 512C704 617.856 617.856 704 512 704Z" fill="white"/>
  <path d="M512 384C453.952 384 408 429.952 408 488C408 546.048 453.952 592 512 592C570.048 592 616 546.048 616 488C616 429.952 570.048 384 512 384ZM512 528C489.92 528 472 510.08 472 488C472 465.92 489.92 448 512 448C534.08 448 552 465.92 552 488C552 510.08 534.08 528 512 528Z" fill="white"/>
  <path d="M512 192C476.8 192 448 220.8 448 256V320C448 337.6 462.4 352 480 352C497.6 352 512 337.6 512 320V256H576C593.6 256 608 241.6 608 224C608 206.4 593.6 192 576 192H512Z" fill="white"/>
  <defs>
    <linearGradient id="paint0_linear" x1="0" y1="0" x2="1024" y2="1024" gradientUnits="userSpaceOnUse">
      <stop stop-color="#6A11CB"/>
      <stop offset="1" stop-color="#2575FC"/>
    </linearGradient>
  </defs>
</svg>