<svg width="1242" height="2436" viewBox="0 0 1242 2436" fill="none" xmlns="http://www.w3.org/2000/svg">
  <rect width="1242" height="2436" fill="url(#paint0_linear)"/>
  <path d="M621 968C480.04 968 365 1083.04 365 1224C365 1364.96 480.04 1480 621 1480C761.96 1480 877 1364.96 877 1224C877 1083.04 761.96 968 621 968ZM621 1416C515.144 1416 429 1329.86 429 1224C429 1118.14 515.144 1032 621 1032C726.856 1032 813 1118.14 813 1224C813 1329.86 726.856 1416 621 1416Z" fill="white"/>
  <path d="M621 1096C562.952 1096 517 1141.95 517 1200C517 1258.05 562.952 1304 621 1304C679.048 1304 725 1258.05 725 1200C725 1141.95 679.048 1096 621 1096ZM621 1240C598.92 1240 581 1222.08 581 1200C581 1177.92 598.92 1160 621 1160C643.08 1160 661 1177.92 661 1200C661 1222.08 643.08 1240 621 1240Z" fill="white"/>
  <path d="M621 904C585.8 904 557 932.8 557 968V1032C557 1049.6 571.4 1064 589 1064C606.6 1064 621 1049.6 621 1032V968H685C702.6 968 717 953.6 717 936C717 918.4 702.6 904 685 904H621Z" fill="white"/>
  <text x="621" y="1600" font-family="Arial" font-size="120" font-weight="bold" fill="white" text-anchor="middle">FRETONE</text>
  <defs>
    <linearGradient id="paint0_linear" x1="0" y1="0" x2="1242" y2="2436" gradientUnits="userSpaceOnUse">
      <stop stop-color="#6A11CB"/>
      <stop offset="1" stop-color="#2575FC"/>
    </linearGradient>
  </defs>
</svg>